<?xml version="1.0" encoding="iso-8859-1"?>
<!-- Generator: Adobe Illustrator 16.0.0, SVG Export Plug-In . SVG Version: 6.00 Build 0)  -->
<!DOCTYPE svg PUBLIC "-//W3C//DTD SVG 1.1//EN" "http://www.w3.org/Graphics/SVG/1.1/DTD/svg11.dtd">
<svg version="1.1" id="Capa_1" xmlns="http://www.w3.org/2000/svg" xmlns:xlink="http://www.w3.org/1999/xlink" x="0px" y="0px"
	 width="487.001px" height="487.001px" viewBox="0 0 487.001 487.001" style="enable-background:new 0 0 487.001 487.001;"
	 xml:space="preserve">
<g>
	<g>
		<path d="M83.389,472.892c46.052,0,83.385-37.334,83.385-83.385c0-0.021-0.003-0.047-0.003-0.067h0.003V118.911h267.828v193.182
			c-9.582-3.842-20.029-5.975-30.984-5.975c-46.052,0-83.384,37.334-83.384,83.385c0,46.053,37.329,83.389,83.382,83.389
			c46.054,0,83.386-37.334,83.386-83.385c0-0.021-0.002-0.047-0.002-0.067h0.002V118.911V14.109H434.6H166.773H114.37v104.802
			v193.182c-9.583-3.842-20.03-5.975-30.985-5.975C37.333,306.119,0,343.453,0,389.503C0,435.556,37.336,472.892,83.389,472.892z"/>
	</g>
</g>
<g>
</g>
<g>
</g>
<g>
</g>
<g>
</g>
<g>
</g>
<g>
</g>
<g>
</g>
<g>
</g>
<g>
</g>
<g>
</g>
<g>
</g>
<g>
</g>
<g>
</g>
<g>
</g>
<g>
</g>
</svg>
