<?xml version="1.0" encoding="iso-8859-1"?>
<!-- Generator: Adobe Illustrator 19.0.0, SVG Export Plug-In . SVG Version: 6.00 Build 0)  -->
<svg version="1.1" id="Layer_1" xmlns="http://www.w3.org/2000/svg" xmlns:xlink="http://www.w3.org/1999/xlink" x="0px" y="0px"
	 viewBox="0 0 490.2 490.2" style="enable-background:new 0 0 490.2 490.2;" xml:space="preserve">
<g>
	<g>
		<path d="M490.079,454.2V176.7c0-18.1-13-32.8-30.4-35.4l-340.2-112.8c-3.3-16.4-17.6-28.5-35.1-28.5c-20,0-35.8,15.8-35.8,35.8
			s15.8,35.8,35.8,35.8c6.7,0,13.1-2,18.6-5.4l225.5,74.8h-292.6c-20,0-35.8,15.8-35.8,35.8v277.6c0,20,15.8,35.8,35.8,35.8h419.4
			C474.179,490,491.079,473.2,490.079,454.2z M449.979,449h-408.8V181.9h408.8V449z"/>
		<path d="M340.379,402.7c46.4,0,84.3-37.9,83.2-83.1c0-45.2-36.9-83.1-83.2-83.1c-45.3,0-83.2,36.8-83.2,83.1
			C257.179,364.9,294.079,402.7,340.379,402.7z M340.379,276.5c24.2,0,43.2,18.9,43.2,43.1s-19,43.1-43.2,43.1s-43.2-18.9-43.2-43.1
			C297.179,295.5,317.279,276.5,340.379,276.5z"/>
		<path d="M86.479,273.4h118c11.6,0,21.1-9.5,21.1-20c0-10.5-8.4-20-20-20h-119.1c-10.5,0-20,8.4-20,20
			C66.479,263.9,74.879,273.4,86.479,273.4z"/>
		<path d="M86.479,397.5h118c11.6,0,21.1-8.4,21.1-20c0-10.5-8.4-20-20-20h-119.1c-10.5,0-20,8.4-20,20
			C66.479,388,74.879,397.5,86.479,397.5z"/>
	</g>
</g>
<g>
</g>
<g>
</g>
<g>
</g>
<g>
</g>
<g>
</g>
<g>
</g>
<g>
</g>
<g>
</g>
<g>
</g>
<g>
</g>
<g>
</g>
<g>
</g>
<g>
</g>
<g>
</g>
<g>
</g>
</svg>
